<?xml version="1.0" encoding="UTF-8" standalone="no"?>
<svg
   xmlns:dc="http://purl.org/dc/elements/1.1/"
   xmlns:cc="http://creativecommons.org/ns#"
   xmlns:rdf="http://www.w3.org/1999/02/22-rdf-syntax-ns#"
   xmlns:svg="http://www.w3.org/2000/svg"
   xmlns="http://www.w3.org/2000/svg"
   id="svg2"
   preserveAspectRatio="xMidYMid"
   version="1.1"
   viewBox="0 0 160 160"
   height="160"
   width="160">
  <metadata
     id="metadata16">
    <rdf:RDF>
      <cc:Work
         rdf:about="">
        <dc:format>image/svg+xml</dc:format>
        <dc:type
           rdf:resource="http://purl.org/dc/dcmitype/StillImage" />
        <dc:title></dc:title>
      </cc:Work>
    </rdf:RDF>
  </metadata>
  <defs
     id="defs14">
    <filter
       height="1.0465"
       y="-0.02325"
       width="1.0496"
       x="-0.0248"
       id="filter4175"
       style="color-interpolation-filters:sRGB">
      <feGaussianBlur
         id="feGaussianBlur4177"
         stdDeviation="1.24" />
    </filter>
  </defs>
  <path
     style="opacity:0.2;fill:#000000;fill-opacity:1;filter:url(#filter4175)"
     d="M 20,38.215475 79.20312,17.000005 140,37.838315 130.15625,116.61842 79.20312,145 29.04688,116.99558 20,38.215475 Z"
     id="path6-6" />
  <g
     transform="matrix(0.47058106,0,0,0.4732965,19.953125,15.669981)"
     id="g4">
    <path
       style="fill:#e23237"
       id="path6"
       d="M 0.09961089,45.522179 125.90817,0.69727626 255.1035,44.725292 234.18521,211.1751 125.90817,271.14086 19.324514,211.97198 0.09961089,45.522179 Z" />
    <path
       style="fill:#b52e31"
       id="path8"
       d="M 255.1035,44.725292 125.90817,0.69727626 l 0,270.44358374 108.27704,-59.86615 20.91829,-166.549418 0,0 z" />
    <path
       style="fill:#ffffff"
       id="path10"
       d="m 126.10739,32.27393 0,0 -78.393771,174.41868 29.285603,-0.49806 15.738521,-39.3463 33.469257,0 0.0996,0 36.75643,0 17.23268,39.84436 27.99066,0.49805 -82.17899,-174.91673 0,0 z m 0.19922,55.881712 26.4965,55.383658 -25.40078,0 -1.29494,0 -23.10973,0 23.30895,-55.383658 0,0 z" />
  </g>
</svg>
