<?xml version="1.0" encoding="UTF-8" standalone="no"?>
<svg
   xmlns:dc="http://purl.org/dc/elements/1.1/"
   xmlns:cc="http://creativecommons.org/ns#"
   xmlns:rdf="http://www.w3.org/1999/02/22-rdf-syntax-ns#"
   xmlns:svg="http://www.w3.org/2000/svg"
   xmlns="http://www.w3.org/2000/svg"
   version="1.1"
   id="Capa_1"
   x="0px"
   y="0px"
   viewBox="0 0 160 160"
   xml:space="preserve"
   width="160"
   height="160"><metadata
     id="metadata55"><rdf:RDF><cc:Work
         rdf:about=""><dc:format>image/svg+xml</dc:format><dc:type
           rdf:resource="http://purl.org/dc/dcmitype/StillImage" /><dc:title></dc:title></cc:Work></rdf:RDF></metadata><defs
     id="defs53"><filter
       style="color-interpolation-filters:sRGB"
       id="filter4228"
       x="-0.024"
       width="1.048"
       y="-0.024"
       height="1.048"><feGaussianBlur
         stdDeviation="1.28"
         id="feGaussianBlur4230" /></filter></defs><g
     id="g21"
     transform="translate(0,102)" /><g
     id="g23"
     transform="translate(0,102)" /><g
     id="g25"
     transform="translate(0,102)" /><g
     id="g27"
     transform="translate(0,102)" /><g
     id="g29"
     transform="translate(0,102)" /><g
     id="g31"
     transform="translate(0,102)" /><g
     id="g33"
     transform="translate(0,102)" /><g
     id="g35"
     transform="translate(0,102)" /><g
     id="g37"
     transform="translate(0,102)" /><g
     id="g39"
     transform="translate(0,102)" /><g
     id="g41"
     transform="translate(0,102)" /><g
     id="g43"
     transform="translate(0,102)" /><g
     id="g45"
     transform="translate(0,102)" /><g
     id="g47"
     transform="translate(0,102)" /><g
     id="g49"
     transform="translate(0,102)" /><g
     id="layer1"
     style="display:inline" /><g
     id="g4174"><path
       id="rect4287"
       d="M 2.05e-6,0 160,0 160,160 2.05e-6,160 Z"
       style="opacity:0;fill:#000000;fill-opacity:1;fill-rule:evenodd;stroke:none;stroke-width:10;stroke-linecap:round;stroke-linejoin:miter;stroke-miterlimit:4;stroke-dasharray:none;stroke-dashoffset:0;stroke-opacity:1" /><path
       id="rect3-3"
       d="m 16,17 128,0 0,128 -128,0 z"
       style="opacity:0.25;fill:#000000;fill-opacity:1;filter:url(#filter4228)" /><path
       id="rect3"
       d="m 16,42.482759 127.99999,0 0,101.517241 L 16,144 Z"
       style="fill:#ffffff;fill-opacity:1" /><g
       id="g4295"><rect
         y="16.000002"
         x="16"
         style="fill:#434549;fill-opacity:1"
         width="128"
         height="26.482758"
         id="rect5" /><g
         id="g4275"><circle
           id="circle7"
           r="3"
           cy="29.241381"
           cx="23"
           style="fill:#ed7161" /><circle
           id="circle9"
           r="3"
           cy="29.241381"
           cx="33"
           style="fill:#f0c419" /><circle
           id="circle11"
           r="3"
           cy="29.241381"
           cx="43"
           style="fill:#4fba6f" /></g></g><circle
       id="circle17"
       r="32"
       cy="93.241379"
       cx="79.999992"
       style="opacity:1;fill:#009587;fill-opacity:1" /><path
       style="opacity:0.87000002;fill:#ffffff;fill-opacity:1"
       id="path4229"
       d="m 88.999992,94.527089 -7.714285,0 0,7.714291 -2.571429,0 0,-7.714291 -7.714286,0 0,-2.571421 7.714286,0 0,-7.71429 2.571429,0 0,7.71429 7.714285,0 0,2.571421 z" /></g></svg>