<?xml version="1.0" encoding="UTF-8" standalone="no"?>
<svg
   xmlns:dc="http://purl.org/dc/elements/1.1/"
   xmlns:cc="http://creativecommons.org/ns#"
   xmlns:rdf="http://www.w3.org/1999/02/22-rdf-syntax-ns#"
   xmlns:svg="http://www.w3.org/2000/svg"
   xmlns="http://www.w3.org/2000/svg"
   width="530"
   height="430"
   viewBox="0 0 530.00001 429.99998"
   id="svg6814"
   version="1.1">
  <defs
     id="defs6816" />
  <metadata
     id="metadata6819">
    <rdf:RDF>
      <cc:Work
         rdf:about="">
        <dc:format>image/svg+xml</dc:format>
        <dc:type
           rdf:resource="http://purl.org/dc/dcmitype/StillImage" />
        <dc:title></dc:title>
      </cc:Work>
    </rdf:RDF>
  </metadata>
  <path
     id="path266"
     style="fill:#434549;fill-opacity:1;fill-rule:nonzero;stroke:none"
     d="M 489.78715,0 10.213525,0 C 4.59565,0 6.5e-4,4.62625 6.5e-4,10.27625 l 0,295.03 499.99937,0 0,-295.03 C 500.00002,4.62625 495.40165,0 489.78715,0" />
  <path
     d="m 2.5000001e-5,305.30625 0,33.3975 c 0,5.65125 4.595124999999,10.2775 10.212999999999,10.2775 l 479.573505,0 c 5.61562,0 10.213,-4.62625 10.213,-10.2775 l 0,-33.3975 -499.999504999999,0 z"
     style="fill:#fbfbfb;fill-opacity:1;fill-rule:nonzero;stroke:none"
     id="path270" />
  <path
     d="m 252.7944,10.505 c 0,1.55 -1.25225,2.8075 -2.791,2.8075 -1.5455,0 -2.79337,-1.2575 -2.79337,-2.8075 0,-1.55375 1.24787,-2.81125 2.79337,-2.81125 1.53875,0 2.791,1.2575 2.791,2.81125"
     style="fill:#fbfbfb;fill-opacity:1;fill-rule:nonzero;stroke:none"
     id="path274" />
  <path
     id="path276"
     style="fill:#ed7161;fill-opacity:1;fill-rule:nonzero;stroke:none"
     d="m 485.00028,285.6525 -470.000005,0 0,-265.99875 470.000005,0 0,265.99875 z" />
  <path
     d="m 330.4269,400.90125 -160.85125,0 c -2.81012,0 -5.10537,2.04625 -5.10537,4.54875 l 0,4.55 5.10537,0 160.85125,0 5.10525,0 0,-4.55 c 0,-2.5025 -2.2975,-4.54875 -5.10525,-4.54875"
     style="fill:#fbfbfb;fill-opacity:1;fill-rule:nonzero;stroke:none"
     id="path280" />
  <path
     d="m 196.92215,348.98125 -11.93525,51.92 130.02775,0 -11.93075,-51.92 -106.16175,0 z"
     style="fill:#f9f9f9;fill-opacity:1;fill-rule:nonzero;stroke:none"
     id="path284" />
  <path
     id="path308"
     style="fill:#434549;fill-opacity:1;fill-rule:nonzero;stroke:none"
     d="m 522.4614,130 -184.92263,0 c -4.14525,0 -7.53875,3.3725 -7.53875,7.5 l 0,265.0025 c 0,4.12375 3.3935,7.4975 7.53875,7.4975 l 184.92263,0 c 4.14512,0 7.53862,-3.37375 7.53862,-7.4975 l 0,-265.0025 c 0,-4.1275 -3.3935,-7.5 -7.53862,-7.5" />
  <path
     id="path306"
     style="fill:#f0c419;fill-opacity:1;fill-rule:nonzero;stroke:none"
     d="m 517.00003,380 -174,0 0,-220 174,0 0,220 z" />
  <path
     d="m 420.92128,145.38 c 0,1.04 -0.84775,1.8875 -1.89138,1.8875 -1.046,0 -1.89625,-0.8475 -1.89625,-1.8875 0,-1.03875 0.85025,-1.885 1.89625,-1.885 1.04363,0 1.89138,0.84625 1.89138,1.885"
     style="fill:#f0f0f0;fill-opacity:1;fill-rule:nonzero;stroke:none"
     id="path312" />
  <path
     d="m 442.86715,146.1725 c 0,0.37625 -0.309,0.6825 -0.686,0.6825 l -16.5345,0 c -0.3795,0 -0.6885,-0.30625 -0.6885,-0.6825 l 0,-1.5775 c 0,-0.375 0.309,-0.68375 0.6885,-0.68375 l 16.5345,0 c 0.377,0 0.686,0.30875 0.686,0.68375 l 0,1.5775 z"
     style="fill:#f0f0f0;fill-opacity:1;fill-rule:nonzero;stroke:none"
     id="path316" />
  <path
     d="m 436.42215,396.395 c 0,3.52625 -2.87663,6.38875 -6.42213,6.38875 -3.54799,0 -6.42325,-2.8625 -6.42325,-6.38875 0,-3.5275 2.87525,-6.3875 6.42325,-6.3875 3.5455,0 6.42213,2.86 6.42213,6.3875"
     style="fill:#f0f0f0;fill-opacity:1;fill-rule:nonzero;stroke:none"
     id="path320" />
  <path
     id="path340"
     style="fill:#434549;fill-opacity:1;fill-rule:nonzero;stroke:none"
     d="m 369.3449,280 -68.69225,0 c -3.10763,0 -5.65263,2.62375 -5.65263,5.83125 l 0,138.3375 c 0,3.2075 2.545,5.83125 5.65263,5.83125 l 68.69225,0 c 3.11012,0 5.65512,-2.62375 5.65512,-5.83125 l 0,-138.3375 c 0,-3.2075 -2.545,-5.83125 -5.65512,-5.83125" />
  <path
     id="path338"
     style="fill:#4fba6f;fill-opacity:1;fill-rule:nonzero;stroke:none"
     d="m 370.00003,413 -70,0 0,-116 70,0 0,116 z" />
  <path
     d="m 339.81503,420.8275 c 0,2.7425 -2.15863,4.96625 -4.81613,4.96625 -2.66,0 -4.81362,-2.22375 -4.81362,-4.96625 0,-2.74375 2.15362,-4.97 4.81362,-4.97 2.6575,0 4.81613,2.22625 4.81613,4.97"
     style="fill:#f0f0f0;fill-opacity:1;fill-rule:nonzero;stroke:none"
     id="path352" />
  <path
     d="m 328.19315,289.50125 c 0,0.80875 -0.6335,1.46625 -1.41863,1.46625 -0.784,0 -1.41875,-0.6575 -1.41875,-1.46625 0,-0.80875 0.63475,-1.46625 1.41875,-1.46625 0.78513,0 1.41863,0.6575 1.41863,1.46625"
     style="fill:#f0f0f0;fill-opacity:1;fill-rule:nonzero;stroke:none"
     id="path344" />
  <path
     d="m 344.64365,289.935 c 0,0.3925 -0.31062,0.7125 -0.68975,0.7125 l -12.04388,0 c -0.38037,0 -0.691,-0.32 -0.691,-0.7125 l 0,-0.86625 c 0,-0.39125 0.31063,-0.71125 0.691,-0.71125 l 12.04388,0 c 0.37912,0 0.68975,0.32 0.68975,0.71125 l 0,0.86625 z"
     style="fill:#f0f0f0;fill-opacity:1;fill-rule:nonzero;stroke:none"
     id="path348" />
</svg>
