<?xml version="1.0" encoding="UTF-8" standalone="no"?>
<svg
   xmlns:dc="http://purl.org/dc/elements/1.1/"
   xmlns:cc="http://creativecommons.org/ns#"
   xmlns:rdf="http://www.w3.org/1999/02/22-rdf-syntax-ns#"
   xmlns:svg="http://www.w3.org/2000/svg"
   xmlns="http://www.w3.org/2000/svg"
   height="160"
   width="160"
   xml:space="preserve"
   viewBox="0 0 160 160"
   y="0px"
   x="0px"
   id="Capa_1"
   version="1.1"><metadata
     id="metadata55"><rdf:RDF><cc:Work
         rdf:about=""><dc:format>image/svg+xml</dc:format><dc:type
           rdf:resource="http://purl.org/dc/dcmitype/StillImage" /><dc:title></dc:title></cc:Work></rdf:RDF></metadata><defs
     id="defs53"><filter
       height="1.048"
       y="-0.024"
       width="1.048"
       x="-0.024"
       id="filter4228"
       style="color-interpolation-filters:sRGB"><feGaussianBlur
         id="feGaussianBlur4230"
         stdDeviation="1.28" /></filter></defs><g
     transform="translate(0,102)"
     id="g21" /><g
     transform="translate(0,102)"
     id="g23" /><g
     transform="translate(0,102)"
     id="g25" /><g
     transform="translate(0,102)"
     id="g27" /><g
     transform="translate(0,102)"
     id="g29" /><g
     transform="translate(0,102)"
     id="g31" /><g
     transform="translate(0,102)"
     id="g33" /><g
     transform="translate(0,102)"
     id="g35" /><g
     transform="translate(0,102)"
     id="g37" /><g
     transform="translate(0,102)"
     id="g39" /><g
     transform="translate(0,102)"
     id="g41" /><g
     transform="translate(0,102)"
     id="g43" /><g
     transform="translate(0,102)"
     id="g45" /><g
     transform="translate(0,102)"
     id="g47" /><g
     transform="translate(0,102)"
     id="g49" /><g
     style="display:inline"
     id="layer1" /><g
     id="g4803"><path
       style="opacity:0;fill:#000000;fill-opacity:1;fill-rule:evenodd;stroke:none;stroke-width:10;stroke-linecap:round;stroke-linejoin:miter;stroke-miterlimit:4;stroke-dasharray:none;stroke-dashoffset:0;stroke-opacity:1"
       d="M 2.05e-6,0 160,0 160,160 2.05e-6,160 Z"
       id="rect4287" /><path
       style="opacity:0.25;fill:#000000;fill-opacity:1;filter:url(#filter4228)"
       d="m 16,17 128,0 0,128 -128,0 z"
       id="rect3-3" /><path
       style="fill:#ffffff;fill-opacity:1"
       d="m 16,42.482759 127.99999,0 0,101.517241 L 16,144 Z"
       id="rect3" /><g
       id="g4295"><rect
         id="rect5"
         height="26.482758"
         width="128"
         style="fill:#434549;fill-opacity:1"
         x="16"
         y="16.000002" /><g
         id="g4275"><circle
           style="fill:#ed7161"
           cx="23"
           cy="29.241381"
           r="3"
           id="circle7" /><circle
           style="fill:#f0c419"
           cx="33"
           cy="29.241381"
           r="3"
           id="circle9" /><circle
           style="fill:#4fba6f"
           cx="43"
           cy="29.241381"
           r="3"
           id="circle11" /></g></g><circle
       style="opacity:0.2;fill:#009587;fill-opacity:1"
       cx="79.999992"
       cy="93.241379"
       r="32"
       id="circle17" /><path
       d="M 72.363628,102.55482 62.340898,92.524973 58.999993,95.868254 72.363628,109.24138 100.99999,80.584662 97.659087,77.241381 72.363628,102.55482 Z"
       id="path4231"
       style="fill:#009587;fill-opacity:1" /></g></svg>