<?xml version="1.0" encoding="UTF-8" standalone="no"?>
<svg
   xmlns:dc="http://purl.org/dc/elements/1.1/"
   xmlns:cc="http://creativecommons.org/ns#"
   xmlns:rdf="http://www.w3.org/1999/02/22-rdf-syntax-ns#"
   xmlns:svg="http://www.w3.org/2000/svg"
   xmlns="http://www.w3.org/2000/svg"
   height="160"
   width="160"
   xml:space="preserve"
   viewBox="0 0 160 160"
   y="0px"
   x="0px"
   id="Capa_1"
   version="1.1"><metadata
     id="metadata55"><rdf:RDF><cc:Work
         rdf:about=""><dc:format>image/svg+xml</dc:format><dc:type
           rdf:resource="http://purl.org/dc/dcmitype/StillImage" /><dc:title></dc:title></cc:Work></rdf:RDF></metadata><defs
     id="defs53"><filter
       height="1.048"
       y="-0.024"
       width="1.048"
       x="-0.024"
       id="filter4228"
       style="color-interpolation-filters:sRGB"><feGaussianBlur
         id="feGaussianBlur4230"
         stdDeviation="1.28" /></filter></defs><g
     transform="translate(0,102)"
     id="g21" /><g
     transform="translate(0,102)"
     id="g23" /><g
     transform="translate(0,102)"
     id="g25" /><g
     transform="translate(0,102)"
     id="g27" /><g
     transform="translate(0,102)"
     id="g29" /><g
     transform="translate(0,102)"
     id="g31" /><g
     transform="translate(0,102)"
     id="g33" /><g
     transform="translate(0,102)"
     id="g35" /><g
     transform="translate(0,102)"
     id="g37" /><g
     transform="translate(0,102)"
     id="g39" /><g
     transform="translate(0,102)"
     id="g41" /><g
     transform="translate(0,102)"
     id="g43" /><g
     transform="translate(0,102)"
     id="g45" /><g
     transform="translate(0,102)"
     id="g47" /><g
     transform="translate(0,102)"
     id="g49" /><g
     style="display:inline"
     id="layer1" /><g
     id="g4799"><path
       style="opacity:0;fill:#000000;fill-opacity:1;fill-rule:evenodd;stroke:none;stroke-width:10;stroke-linecap:round;stroke-linejoin:miter;stroke-miterlimit:4;stroke-dasharray:none;stroke-dashoffset:0;stroke-opacity:1"
       d="M 2.05e-6,0 160,0 160,160 2.05e-6,160 Z"
       id="rect4287" /><path
       style="opacity:0.25;fill:#000000;fill-opacity:1;filter:url(#filter4228)"
       d="m 16,17 128,0 0,128 -128,0 z"
       id="rect3-3" /><path
       style="fill:#ffffff;fill-opacity:1"
       d="m 16,42.482759 127.99999,0 0,101.517241 L 16,144 Z"
       id="rect3" /><rect
       y="16.000002"
       x="16"
       style="fill:#434549;fill-opacity:1"
       width="128"
       height="26.482758"
       id="rect5" /><g
       id="g4275"><circle
         id="circle7"
         r="3"
         cy="29.241381"
         cx="23"
         style="fill:#ed7161" /><circle
         id="circle9"
         r="3"
         cy="29.241381"
         cx="33"
         style="fill:#f0c419" /><circle
         id="circle11"
         r="3"
         cy="29.241381"
         cx="43"
         style="fill:#4fba6f" /></g><circle
       style="opacity:0.08;fill:#000000;fill-opacity:1"
       cx="79.999992"
       cy="93.241379"
       r="32"
       id="circle17" /><path
       d="m 94.399993,75.241377 -28.8,0 c -1.98,0 -3.6,1.62 -3.6,3.6 l 0,21.599993 c 0,1.98001 1.62,3.60001 3.6,3.60001 l 25.2,0 7.199999,7.2 0,-32.400003 c 0,-1.98 -1.619999,-3.6 -3.599999,-3.6 z m -3.6,21.600001 -21.6,0 0,-3.6 21.6,0 0,3.6 z m 0,-5.4 -21.6,0 0,-3.600001 21.6,0 0,3.600001 z m 0,-5.400001 -21.6,0 0,-3.6 21.6,0 0,3.6 z"
       id="path4234"
       style="fill:#646464;fill-opacity:1" /></g></svg>